<svg xmlns="http://www.w3.org/2000/svg" xmlns:xlink="http://www.w3.org/1999/xlink" width="310" height="180" x="0" y="0" version="1.1" viewBox="0 0 310 180"><g id="Background"><path fill="#FFF" d="M0,0 L310,0 L310,180 L0,180 z"/></g><g id="Main_Layer"><path fill-opacity="0" stroke="#000" stroke-width="2" d="M170.987,25 C170.987,36.046 161.591,45 150.001,45 C138.41,45 129.014,36.046 129.014,25 C129.014,13.954 138.41,5 150.001,5 C161.591,5 170.987,13.954 170.987,25 z"/><text transform="matrix(1.049, 0, 0, 1, 150.525, 25)"><tspan x="-15.676" y="8.5" fill="#000" font-family=".LucidaGrandeUI" font-size="24">7</tspan></text><path fill-opacity="0" stroke="#000" stroke-width="2" d="M92.288,80 C92.288,91.046 82.893,100 71.302,100 C59.712,100 50.316,91.046 50.316,80 C50.316,68.954 59.712,60 71.302,60 C82.893,60 92.288,68.954 92.288,80 z"/><text transform="matrix(1.049, 0, 0, 1, 71.591, 80.406)"><tspan x="-7.588" y="8.5" fill="#000" font-family=".LucidaGrandeUI" font-size="24">5</tspan></text><path fill-opacity="0" stroke="#000" stroke-width="2" d="M249.684,80 C249.684,91.046 240.288,100 228.698,100 C217.107,100 207.712,91.046 207.712,80 C207.712,68.954 217.107,60 228.698,60 C240.288,60 249.684,68.954 249.684,80 z"/><text transform="matrix(1.049, 0, 0, 1, 236.947, 80.406)"><tspan x="-15.176" y="8.5" fill="#000" font-family=".LucidaGrandeUI" font-size="24">9</tspan></text><path fill-opacity="0" stroke="#000" stroke-width="2" d="M44.615,155.182 C44.615,166.227 35.22,175.182 23.629,175.182 C12.039,175.182 2.643,166.227 2.643,155.182 C2.643,144.136 12.039,135.182 23.629,135.182 C35.22,135.182 44.615,144.136 44.615,155.182 z"/><text transform="matrix(1.049, 0, 0, 1, 23.629, 155.477)"><tspan x="-8.088" y="8.5" fill="#000" font-family=".LucidaGrandeUI" font-size="24">3</tspan></text><path fill-opacity="0" stroke="#830E00" stroke-width="2" d="M302.149,155 C302.149,166.046 292.754,175 281.163,175 C269.573,175 260.177,166.046 260.177,155 C260.177,143.954 269.573,135 281.163,135 C292.754,135 302.149,143.954 302.149,155 z"/><text transform="matrix(1.049, 0, 0, 1, 281.452, 155.406)"><tspan x="-7.588" y="8.5" fill="#830E00" font-family=".LucidaGrandeUI" font-size="24">8</tspan></text><g><path fill="#000" d="M88.169,68.547 L101.855,62.579 L98.077,57.75 L88.169,68.547 z"/><path fill-opacity="0" stroke="#000" stroke-width="2" d="M88.169,68.547 L101.855,62.579 L98.077,57.75 L88.169,68.547 z"/></g><g><path fill="#000" d="M96.609,62.565 L133.13,36.614"/><path fill-opacity="0" stroke="#000" stroke-width="2" d="M96.609,62.565 L133.13,36.614"/></g><g><path fill="#000" d="M210.799,68.547 L197.113,62.579 L200.891,57.75 L210.799,68.547 z"/><path fill-opacity="0" stroke="#000" stroke-width="2" d="M210.799,68.547 L197.113,62.579 L200.891,57.75 L210.799,68.547 z"/></g><g><path fill="#000" d="M202.36,62.565 L165.838,36.614"/><path fill-opacity="0" stroke="#000" stroke-width="2" d="M202.36,62.565 L165.838,36.614"/></g><g><path fill="#000" d="M31.303,138.051 L42.009,127.97 L36.722,124.67 L31.303,138.051 z"/><path fill-opacity="0" stroke="#000" stroke-width="2" d="M31.303,138.051 L42.009,127.97 L36.722,124.67 L31.303,138.051 z"/></g><g><path fill="#000" d="M37.076,129.673 L59.754,96.675"/><path fill-opacity="0" stroke="#000" stroke-width="2" d="M37.076,129.673 L59.754,96.675"/></g><g><path fill="#000" d="M105.929,129.75 L83.251,96.752"/></g><g><path fill="#000" d="M269.624,137.878 L258.918,127.797 L264.205,124.497 L269.624,137.878 z"/><path fill-opacity="0" stroke="#000" stroke-width="2" d="M269.624,137.878 L258.918,127.797 L264.205,124.497 L269.624,137.878 z"/></g><g><path fill="#000" d="M263.851,129.5 L241.173,96.502"/><path fill-opacity="0" stroke="#000" stroke-width="2" d="M263.851,129.5 L241.173,96.502"/></g><path fill-opacity="0" stroke="#515151" stroke-linecap="round" stroke-width="1" d="M186.961,-33.043 L187,-33"/><g><path fill="#000" d="M202.36,127 L219.791,100"/><path fill-opacity="0" stroke="#000" stroke-width="2" d="M202.36,127 L219.791,100"/></g><g><path fill="#000" d="M197.005,135.477 L207.712,125.395 L202.424,122.095 L197.005,135.477 z"/><path fill-opacity="0" stroke="#000" stroke-width="2" d="M197.005,135.477 L207.712,125.395 L202.424,122.095 L197.005,135.477 z"/></g><path fill-opacity="0" stroke="#830E00" stroke-width="2" d="M205.085,152.768 C205.085,163.813 195.689,172.768 184.099,172.768 C172.509,172.768 163.113,163.813 163.113,152.768 C163.113,141.722 172.509,132.768 184.099,132.768 C195.689,132.768 205.085,141.722 205.085,152.768 z"/><text transform="matrix(1.049, 0, 0, 1, 181.662, 155.883)"><tspan x="-7.588" y="8.5" fill="#830E00" font-family=".LucidaGrandeUI" font-size="24">6</tspan></text></g><g id="g3032"><path fill-opacity="0" stroke="#000" stroke-width="2" d="M102.782,225 C102.782,236.046 93.386,245 81.795,245 C70.205,245 60.809,236.046 60.809,225 C60.809,213.954 70.205,205 81.795,205 C93.386,205 102.782,213.954 102.782,225 z" display="none"/><text display="none" transform="matrix(1.049, 0, 0, 1, 82.609, 225.406)"><tspan x="-8.088" y="8.5" fill="#000" font-family=".LucidaGrandeUI" font-size="24">5</tspan></text></g><g id="g3040"><path fill-opacity="0" stroke="#000" stroke-width="2" d="M186.726,225 C186.726,236.046 177.33,245 165.74,245 C154.15,245 144.754,236.046 144.754,225 C144.754,213.954 154.15,205 165.74,205 C177.33,205 186.726,213.954 186.726,225 z" display="none"/><text display="none" transform="matrix(1.049, 0, 0, 1, 165.939, 225.248)"><tspan x="-15.676" y="8.5" fill="#000" font-family=".LucidaGrandeUI" font-size="24">11</tspan></text></g><g id="g3048"><path fill-opacity="0" stroke="#000" stroke-width="2" d="M249.684,225 C249.684,236.046 240.288,245 228.698,245 C217.107,245 207.712,236.046 207.712,225 C207.712,213.954 217.107,205 228.698,205 C240.288,205 249.684,213.954 249.684,225 z" display="none"/><text display="none" transform="matrix(1.049, 0, 0, 1, 229.511, 225.406)"><tspan x="-8.088" y="8.5" fill="#000" font-family=".LucidaGrandeUI" font-size="24">4</tspan></text></g><g id="g3130"><g><path fill="#000" d="M241.288,208.628 L251.994,198.547 L246.706,195.247 L241.288,208.628 z" display="none"/><path fill-opacity="0" stroke="#000" stroke-width="2" d="M241.288,208.628 L251.994,198.547 L246.706,195.247 L241.288,208.628 z" display="none"/></g><g><path fill="#000" d="M247.061,200.25 L267.67,170.261" display="none"/><path fill-opacity="0" stroke="#000" stroke-width="2" d="M247.061,200.25 L267.67,170.261" display="none"/></g></g><g id="g3142"><g><path fill="#000" d="M155.919,207.426 L146.052,196.595 L151.588,193.689 L155.919,207.426 z" display="none"/><path fill-opacity="0" stroke="#000" stroke-width="2" d="M155.919,207.426 L146.052,196.595 L151.588,193.689 L155.919,207.426 z" display="none"/></g><g><path fill="#000" d="M150.834,198.651 L135.262,171.706" display="none"/><path fill-opacity="0" stroke="#000" stroke-width="2" d="M150.834,198.651 L135.262,171.706" display="none"/></g></g></svg>