<?xml version="1.0" encoding="UTF-8"?>
<!DOCTYPE svg PUBLIC "-//W3C//DTD SVG 1.1//EN" "http://www.w3.org/Graphics/SVG/1.1/DTD/svg11.dtd">
<svg version="1.1" xmlns="http://www.w3.org/2000/svg" xmlns:xlink="http://www.w3.org/1999/xlink" x="0px" y="0px" width="369.824" height="92.875" viewBox="0, 0, 369.824, 92.875">
  <g id="Layer_1">
    <path d="M369.824,64.086 L367.006,64.086 L367.006,12.878 L369.824,12.878 L369.824,64.086 z" fill="#FFFFFF"/>
    <g>
      <path d="M368.081,63.939 L0.5,63.939 L0.5,12.89 L368.081,12.89 L368.081,63.939 z" fill="#FFFFFF"/>
      <path d="M368.081,63.939 L0.5,63.939 L0.5,12.89 L368.081,12.89 L368.081,63.939 z" fill-opacity="0" stroke="#000000" stroke-width="1"/>
    </g>
    <path d="M315.706,63.561 L315.706,13.211" fill-opacity="0" stroke="#000000" stroke-width="1"/>
    <path d="M158.453,63.561 L158.453,13.211" fill-opacity="0" stroke="#000000" stroke-width="1"/>
    <path d="M106.035,63.561 L106.035,13.211" fill-opacity="0" stroke="#000000" stroke-width="1"/>
    <path d="M53.618,63.561 L53.618,13.211" fill-opacity="0" stroke="#000000" stroke-width="1"/>
    <path d="M263.289,63.561 L263.289,13.211" fill-opacity="0" stroke="#000000" stroke-width="1"/>
    <path d="M210.871,63.561 L210.871,13.211" fill-opacity="0" stroke="#000000" stroke-width="1"/>
    <text transform="matrix(1, 0, 0, 1, 29.438, 82.376)">
      <tspan x="-6.191" y="6" font-family=".LucidaGrandeUI" font-size="18" fill="#000000">0</tspan>
    </text>
    <text transform="matrix(1, 0, 0, 1, 79.438, 82.376)">
      <tspan x="-6.191" y="6" font-family=".LucidaGrandeUI" font-size="18" fill="#000000">1</tspan>
    </text>
    <text transform="matrix(1, 0, 0, 1, 132.938, 82.376)">
      <tspan x="-6.191" y="6" font-family=".LucidaGrandeUI" font-size="18" fill="#000000">2</tspan>
    </text>
    <text transform="matrix(1, 0, 0, 1, 185.438, 82.376)">
      <tspan x="-6.191" y="6" font-family=".LucidaGrandeUI" font-size="18" fill="#000000">3</tspan>
    </text>
    <text transform="matrix(1, 0, 0, 1, 236.938, 82.376)">
      <tspan x="-6.191" y="6" font-family=".LucidaGrandeUI" font-size="18" fill="#000000">4</tspan>
    </text>
    <text transform="matrix(1, 0, 0, 1, 289.438, 82.376)">
      <tspan x="-6.191" y="6" font-family=".LucidaGrandeUI" font-size="18" fill="#000000">5</tspan>
    </text>
    <text transform="matrix(1, 0, 0, 1, 342.938, 82.376)">
      <tspan x="-6.191" y="6" font-family=".LucidaGrandeUI" font-size="18" fill="#000000">6</tspan>
    </text>
    <path d="M40.364,39.375 C40.364,47.383 33.872,53.875 25.864,53.875 C17.856,53.875 11.364,47.383 11.364,39.375 C11.364,31.367 17.856,24.875 25.864,24.875 C33.872,24.875 40.364,31.367 40.364,39.375 z" fill-opacity="0" stroke="#000000" stroke-width="1"/>
    <path d="M93.864,39.375 C93.864,47.383 87.372,53.875 79.364,53.875 C71.356,53.875 64.864,47.383 64.864,39.375 C64.864,31.367 71.356,24.875 79.364,24.875 C87.372,24.875 93.864,31.367 93.864,39.375 z" fill-opacity="0" stroke="#000000" stroke-width="1"/>
    <path d="M144.864,39.375 C144.864,47.383 138.372,53.875 130.364,53.875 C122.356,53.875 115.864,47.383 115.864,39.375 C115.864,31.367 122.356,24.875 130.364,24.875 C138.372,24.875 144.864,31.367 144.864,39.375 z" fill-opacity="0" stroke="#000000" stroke-width="1"/>
    <path d="M196.864,39.375 C196.864,47.383 190.372,53.875 182.364,53.875 C174.356,53.875 167.864,47.383 167.864,39.375 C167.864,31.367 174.356,24.875 182.364,24.875 C190.372,24.875 196.864,31.367 196.864,39.375 z" fill-opacity="0" stroke="#000000" stroke-width="1"/>
    <path d="M356.364,39.375 C356.364,47.383 349.872,53.875 341.864,53.875 C333.856,53.875 327.364,47.383 327.364,39.375 C327.364,31.367 333.856,24.875 341.864,24.875 C349.872,24.875 356.364,31.367 356.364,39.375 z" fill-opacity="0" stroke="#000000" stroke-width="1"/>
    <path d="M302.864,39.375 C302.864,47.383 296.372,53.875 288.364,53.875 C280.356,53.875 273.864,47.383 273.864,39.375 C273.864,31.367 280.356,24.875 288.364,24.875 C296.372,24.875 302.864,31.367 302.864,39.375 z" fill-opacity="0" stroke="#000000" stroke-width="1"/>
    <path d="M249.364,39.375 C249.364,47.383 242.872,53.875 234.864,53.875 C226.856,53.875 220.364,47.383 220.364,39.375 C220.364,31.367 226.856,24.875 234.864,24.875 C242.872,24.875 249.364,31.367 249.364,39.375 z" fill-opacity="0" stroke="#000000" stroke-width="1"/>
    <g>
      <path d="M64.899,39.875 C62.059,40.929 58.536,42.727 56.352,44.63 L58.072,39.875 L56.352,35.12 C58.536,37.024 62.059,38.822 64.899,39.875 z" fill="#FFFFFF"/>
      <g>
        <path d="M40.364,40.375 C46.316,40.898 52.795,39.875 58.864,39.875" fill-opacity="0" stroke="#000000" stroke-width="1"/>
        <path d="M64.899,39.875 C62.059,40.929 58.536,42.727 56.352,44.63 L58.072,39.875 L56.352,35.12 C58.536,37.024 62.059,38.822 64.899,39.875 z" fill="#000000"/>
      </g>
    </g>
    <g>
      <path d="M122.23,28.253 C119.223,27.89 115.267,27.877 112.455,28.57 L116.16,25.129 L116.806,20.114 C117.877,22.806 120.187,26.017 122.23,28.253 z" fill="#FFFFFF"/>
      <g>
        <path d="M38.301,30.375 C37.305,30.873 36.977,30.867 37.317,30.356 C45.511,22.612 65.91,19.118 77.818,18.418 C92.603,17.549 104.777,19.27 116.864,25.49" fill-opacity="0" stroke="#000000" stroke-width="1"/>
        <path d="M122.23,28.253 C119.223,27.89 115.267,27.877 112.455,28.57 L116.16,25.129 L116.806,20.114 C117.877,22.806 120.187,26.017 122.23,28.253 z" fill="#000000"/>
      </g>
    </g>
    <g>
      <path d="M171.836,48.616 C170.094,51.094 168.21,54.572 167.489,57.377 L166.211,52.485 L162.099,49.543 C164.977,49.874 168.899,49.358 171.836,48.616 z" fill="#FFFFFF"/>
      <g>
        <path d="M89.864,50.375 C91.207,52.03 97.732,55.457 100.23,56.695 C106.061,59.583 115.669,60.982 122.838,61.264 C137.666,61.847 156.382,59.247 166.864,52.036" fill-opacity="0" stroke="#000000" stroke-width="1"/>
        <path d="M171.836,48.616 C170.094,51.094 168.21,54.572 167.489,57.377 L166.211,52.485 L162.099,49.543 C164.977,49.874 168.899,49.358 171.836,48.616 z" fill="#000000"/>
      </g>
    </g>
    <g>
      <path d="M225.748,51.33 C224.069,53.851 222.274,57.376 221.625,60.199 L220.223,55.341 L216.038,52.503 C218.923,52.761 222.831,52.146 225.748,51.33 z" fill="#FFFFFF"/>
      <g>
        <path d="M82.364,55.262 C81.948,54.996 81.486,54.871 80.978,54.885 C91.768,66.671 109.828,71.386 127.761,71.892 C157.116,72.72 198.076,71.418 220.865,54.875" fill-opacity="0" stroke="#000000" stroke-width="1"/>
        <path d="M225.748,51.33 C224.069,53.851 222.274,57.376 221.625,60.199 L220.223,55.341 L216.038,52.503 C218.923,52.761 222.831,52.146 225.748,51.33 z" fill="#000000"/>
      </g>
    </g>
    <g>
      <path d="M277.208,30.415 C274.195,30.728 270.334,31.59 267.745,32.888 L270.596,28.713 L270.117,23.679 C271.757,26.066 274.721,28.687 277.208,30.415 z" fill="#FFFFFF"/>
      <g>
        <path d="M142.364,32.875 C148.007,27.505 158.557,24.975 165.59,22.866 C176.481,19.6 189.476,19.463 200.918,18.788 C225.481,17.339 248.147,22.93 271.365,28.909" fill-opacity="0" stroke="#000000" stroke-width="1"/>
        <path d="M277.208,30.415 C274.195,30.728 270.334,31.59 267.745,32.888 L270.596,28.713 L270.117,23.679 C271.757,26.066 274.721,28.687 277.208,30.415 z" fill="#000000"/>
      </g>
    </g>
    <g>
      <path d="M331.712,28.469 C328.804,27.625 324.902,26.971 322.015,27.201 L326.227,24.404 L327.676,19.56 C328.297,22.389 330.058,25.932 331.712,28.469 z" fill="#FFFFFF"/>
      <g>
        <path d="M136.864,25.875 C146.383,16.708 160.439,12.283 172.783,8.264 C212.814,-4.772 256.119,-0.024 295.978,11.08 C306.457,13.999 318.005,18.311 326.864,24.875" fill-opacity="0" stroke="#000000" stroke-width="1"/>
        <path d="M331.712,28.469 C328.804,27.625 324.902,26.971 322.015,27.201 L326.227,24.404 L327.676,19.56 C328.297,22.389 330.058,25.932 331.712,28.469 z" fill="#000000"/>
      </g>
    </g>
    <text transform="matrix(1, 0, 0, 1, 25.364, 40.33)">
      <tspan x="-5.691" y="6" font-family=".LucidaGrandeUI" font-size="18" fill="#000000">2</tspan>
    </text>
    <text transform="matrix(1, 0, 0, 1, 78.864, 40.33)">
      <tspan x="-5.691" y="6" font-family=".LucidaGrandeUI" font-size="18" fill="#000000">7</tspan>
    </text>
    <text transform="matrix(1, 0, 0, 1, 129.864, 39.375)">
      <tspan x="-5.691" y="6" font-family=".LucidaGrandeUI" font-size="18" fill="#000000">5</tspan>
    </text>
    <text transform="matrix(1, 0, 0, 1, 182.364, 39.375)">
      <tspan x="-5.691" y="6" font-family=".LucidaGrandeUI" font-size="18" fill="#000000">2</tspan>
    </text>
    <text transform="matrix(1, 0, 0, 1, 234.864, 40.33)">
      <tspan x="-5.691" y="6" font-family=".LucidaGrandeUI" font-size="18" fill="#000000">6</tspan>
    </text>
    <text transform="matrix(1, 0, 0, 1, 341.864, 39.875)">
      <tspan x="-5.691" y="6" font-family=".LucidaGrandeUI" font-size="18" fill="#000000">9</tspan>
    </text>
    <text transform="matrix(1, 0, 0, 1, 288.364, 39.375)">
      <tspan x="-5.691" y="6" font-family=".LucidaGrandeUI" font-size="18" fill="#000000">0</tspan>
    </text>
  </g>
  <defs/>
</svg>
