<svg xmlns="http://www.w3.org/2000/svg" xmlns:xlink="http://www.w3.org/1999/xlink" width="266" height="176" x="0" y="0" version="1.1" viewBox="0 0 266 176"><g id="Background"><rect width="266" height="176" x="0" y="0" fill="#FFF"/></g><g id="graph0"><g><g><path fill="#FFF" d="M261,83 C261,96.255 250.255,107 237,107 C223.745,107 213,96.255 213,83 C213,69.745 223.745,59 237,59 C250.255,59 261,69.745 261,83 z"/><path fill-opacity="0" stroke="#000" stroke-width="3" d="M261,83 C261,96.255 250.255,107 237,107 C223.745,107 213,96.255 213,83 C213,69.745 223.745,59 237,59 C250.255,59 261,69.745 261,83 z"/></g><text transform="matrix(1, 0, 0, 1, 236.5, 82.5)"><tspan x="-6.956" y="7.5" fill="#000" font-family=".LucidaGrandeUI" font-size="22">0</tspan></text></g><g><g><path fill="#FFF" d="M211,135 C211,148.255 200.255,159 187,159 C173.745,159 163,148.255 163,135 C163,121.745 173.745,111 187,111 C200.255,111 211,121.745 211,135 z"/><path fill-opacity="0" stroke="#000" stroke-width="3" d="M211,135 C211,148.255 200.255,159 187,159 C173.745,159 163,148.255 163,135 C163,121.745 173.745,111 187,111 C200.255,111 211,121.745 211,135 z"/></g><text transform="matrix(1, 0, 0, 1, 187, 134.5)"><tspan x="-6.956" y="7.5" fill="#000" font-family=".LucidaGrandeUI" font-size="22">2</tspan></text></g><path fill-opacity="0" stroke="#000" stroke-width="3" d="M220,100 C215,106 209,112 204,117"/><g><g><path fill="#FFF" d="M133,147 C133,160.255 122.255,171 109,171 C95.745,171 85,160.255 85,147 C85,133.745 95.745,123 109,123 C122.255,123 133,133.745 133,147 z"/><path fill-opacity="0" stroke="#000" stroke-width="3" d="M133,147 C133,160.255 122.255,171 109,171 C95.745,171 85,160.255 85,147 C85,133.745 95.745,123 109,123 C122.255,123 133,133.745 133,147 z"/></g><text transform="matrix(1, 0, 0, 1, 109, 146.5)"><tspan x="-6.956" y="7.5" fill="#000" font-family=".LucidaGrandeUI" font-size="22">3</tspan></text></g><path fill-opacity="0" stroke="#000" stroke-width="3" d="M163,139 C153,140 142,142 133,143"/><g><g><path fill="#FFF" d="M194,58 C194,71.255 183.255,82 170,82 C156.745,82 146,71.255 146,58 C146,44.745 156.745,34 170,34 C183.255,34 194,44.745 194,58 z"/><path fill-opacity="0" stroke="#000" stroke-width="3" d="M194,58 C194,71.255 183.255,82 170,82 C156.745,82 146,71.255 146,58 C146,44.745 156.745,34 170,34 C183.255,34 194,44.745 194,58 z"/></g><text transform="matrix(1, 0, 0, 1, 170, 57.5)"><tspan x="-6.956" y="7.5" fill="#000" font-family=".LucidaGrandeUI" font-size="22">5</tspan></text></g><path fill-opacity="0" stroke="#000" stroke-width="3" d="M182,111 C180,102 177,91 175,82"/><g><g><path fill="#FFF" d="M116,70 C116,83.255 105.255,94 92,94 C78.745,94 68,83.255 68,70 C68,56.745 78.745,46 92,46 C105.255,46 116,56.745 116,70 z"/><path fill-opacity="0" stroke="#000" stroke-width="3" d="M116,70 C116,83.255 105.255,94 92,94 C78.745,94 68,83.255 68,70 C68,56.745 78.745,46 92,46 C105.255,46 116,56.745 116,70 z"/></g><text transform="matrix(1, 0, 0, 1, 92, 69.5)"><tspan x="-6.956" y="7.5" fill="#000" font-family=".LucidaGrandeUI" font-size="22">4</tspan></text></g><path fill-opacity="0" stroke="#000" stroke-width="3" d="M104,123 C102,114 99,103 97,94"/><path fill-opacity="0" stroke="#000" stroke-width="3" d="M116,66 C126,65 137,63 146,62"/><path fill-opacity="0" stroke="#000" stroke-width="3" d="M193,66 C200,69 207,72 214,75"/><g><g><path fill="#FFF" d="M53,29 C53,42.255 42.255,53 29,53 C15.745,53 5,42.255 5,29 C5,15.745 15.745,5 29,5 C42.255,5 53,15.745 53,29 z"/><path fill-opacity="0" stroke="#000" stroke-width="3" d="M53,29 C53,42.255 42.255,53 29,53 C15.745,53 5,42.255 5,29 C5,15.745 15.745,5 29,5 C42.255,5 53,15.745 53,29 z"/></g><text transform="matrix(1, 0, 0, 1, 28.5, 28.5)"><tspan x="-6.956" y="7.5" fill="#000" font-family=".LucidaGrandeUI" font-size="22">1</tspan></text></g><path fill-opacity="0" stroke="#000" stroke-width="3" d="M49,42 C56,47 65,52 72,57"/></g></svg>